<?xml version="1.0" encoding="UTF-8"?>
<svg id="Layer_1" xmlns="http://www.w3.org/2000/svg" version="1.1" viewBox="0 0 1000 1000">
  <!-- Generator: Adobe Illustrator 30.0.0, SVG Export Plug-In . SVG Version: 2.1.1 Build 123)  -->
  <defs>
    <style>
      .st0 {
        display: none;
        fill: #131930;
      }

      .st1 {
        fill: none;
        stroke: #000;
        stroke-linecap: round;
        stroke-miterlimit: 10;
        stroke-width: 14px;
      }
    </style>
  </defs>
  <rect class="st0" width="1000" height="1000"/>
  <path class="st1" d="M484.93,389.6v-144.84c0-5.5-.37-14.48-.83-19.97,0,0-1.23-14.73-31.58-16.27s-81.28,15.18-105.58,45.27c-24.31,30.09-19.1,26.46-23.28,37.55-1.23,3.27-5.66,16.2-15.18,20.06-9.52,3.86-33.01,23.67-45.01,42.7-9.79,15.52-10.54,44.02-10.54,44.02-.14,5.5-2.36,13.98-4.93,18.84,0,0-.22.42-1.25,1.44s-29.84,32.67-29.84,63.53c0,50.28,24.03,72.44,24.03,72.44,4.04,3.73,7.6,11.27,7.91,16.76,0,0,1.5,27.05,5.88,37.86,4.37,10.8,15.95,26.49,22.38,31.64,6.43,5.14,14.4,13.63,15.69,22.89s13.37,40.12,29.06,48.35c15.69,8.23,26.49,14.92,31.38,16.2,4.89,1.29,13.12,4.12,18.52,14.15,5.4,10.03,15.95,27.52,27.78,34.72,11.83,7.2,31.12,18.78,58.9,13.12,27.78-5.66,26.87-29.87,26.87-29.87-.21-5.5-.38-14.49-.38-19.99v-174.82"/>
  <path class="st1" d="M515.07,389.6v-144.84c0-5.5.37-14.48.83-19.97,0,0,1.23-14.73,31.58-16.27s81.28,15.18,105.58,45.27,19.1,26.46,23.28,37.55c1.23,3.27,5.66,16.2,15.18,20.06,9.52,3.86,33.01,23.67,45.01,42.7,9.79,15.52,10.54,44.02,10.54,44.02.14,5.5,2.36,13.98,4.93,18.84,0,0,.22.42,1.25,1.44s29.84,32.67,29.84,63.53c0,50.28-24.03,72.44-24.03,72.44-4.04,3.73-7.6,11.27-7.91,16.76,0,0-1.5,27.05-5.88,37.86-4.37,10.8-15.95,26.49-22.38,31.64-6.43,5.14-14.4,13.63-15.69,22.89-1.29,9.26-13.37,40.12-29.06,48.35-15.69,8.23-26.49,14.92-31.38,16.2-4.89,1.29-13.12,4.12-18.52,14.15-5.4,10.03-15.95,27.52-27.78,34.72-11.83,7.2-31.12,18.78-58.9,13.12-27.78-5.66-26.87-29.87-26.87-29.87.21-5.5.38-14.49.38-19.99v-174.82"/>
  <path d="M657.36,416.14h14.72c6.76,0,12.26,5.49,12.26,12.26v97.79c0,6.76-5.49,12.26-12.26,12.26h-14.72c-1.72,0-3.12-1.4-3.12-3.12v-116.07c0-1.72,1.4-3.12,3.12-3.12Z"/>
  <path d="M321.55,416.14h14.49c6.76,0,12.26,5.49,12.26,12.26v97.79c0,6.76-5.49,12.26-12.26,12.26h-14.49c-1.85,0-3.35-1.5-3.35-3.35v-115.6c0-1.85,1.5-3.35,3.35-3.35Z" transform="translate(666.49 954.58) rotate(-180)"/>
  <rect x="357.55" y="393.37" width="40.12" height="167.83" rx="6.47" ry="6.47"/>
  <rect x="604.08" y="393.37" width="40.12" height="167.83" rx="8.71" ry="8.71"/>
  <path d="M397.68,459.67c0,4.24.87,4.82,7.33,4.82h195.61s3.47,0,3.47-3.04c0-4.1,0,30.72,0,30.72,0,0-.39-2.22-4.63-2.22h-197.92s-4.92-.58-3.86,4.87c.38,1.93-7.49-30.95,0-35.16Z"/>
  <path class="st1" d="M269.75,460.33s-23.28,36.78,9.52,68.93"/>
  <path class="st1" d="M295.92,576.84s61.34,72.53,141.21,1.16"/>
  <path class="st1" d="M318.2,635.87s60.86,36.65,116.8-4.05"/>
  <path class="st1" d="M352.43,685.64s55.57,19.1,89.33-8.68"/>
  <path class="st1" d="M410.89,730.2s19.29,18.52,28.94,22.38"/>
  <path class="st1" d="M360.8,315.91s10.03-53.63,82.37-64.04"/>
  <path class="st1" d="M286.34,389.6s33.1-61,98.77-43.85c2.12.55,4.34-.43,5.31-2.4,9.38-19.09,26.92-46.12,55.27-48.85"/>
  <path class="st1" d="M428.32,377.64s4.24-25.46,19.1-37.23"/>
  <path class="st1" d="M732.57,460.33s23.28,36.78-9.52,68.93"/>
  <path class="st1" d="M706.4,576.84s-61.34,72.53-141.21,1.16"/>
  <path class="st1" d="M684.12,635.87s-60.86,36.65-116.8-4.05"/>
  <path class="st1" d="M649.89,685.64s-55.57,19.1-89.33-8.68"/>
  <path class="st1" d="M591.43,730.2s-19.29,18.52-28.94,22.38"/>
  <path class="st1" d="M641.52,315.91s-10.03-53.63-82.37-64.04"/>
  <path class="st1" d="M715.98,389.6s-33.1-61-98.77-43.85c-2.12.55-4.34-.43-5.31-2.4-9.38-19.09-26.92-46.12-55.27-48.85"/>
  <path class="st1" d="M574,377.64s-4.24-25.46-19.1-37.23"/>
</svg>